<?xml version="1.0" encoding="UTF-8"?>
<svg width="12px" height="16px" viewBox="0 0 12 16" version="1.1" xmlns="http://www.w3.org/2000/svg" xmlns:xlink="http://www.w3.org/1999/xlink">
    <!-- Generator: Sketch 56.3 (81716) - https://sketch.com -->
    <title>Shape</title>
    <desc>Created with Sketch.</desc>
    <g id="Personaliser---Necklaces" stroke="none" stroke-width="1" fill="none" fill-rule="evenodd">
        <g id="Necklaces---Customiser---main-screen---mais-opções---topo---lightbox" transform="translate(-230.000000, -311.000000)" fill="#37584F" fill-rule="nonzero">
            <g id="Group-4" transform="translate(-37.000000, 0.000000)">
                <g id="Group-3" transform="translate(0.000000, 93.000000)">
                    <g id="Group-6" transform="translate(117.000000, 93.000000)">
                        <path d="M150.812155,140.998737 C150.679558,140.998737 150.546961,140.965055 150.430939,140.897692 C150.165746,140.746125 150,140.459832 150,140.156698 L150,125.842039 C150,125.370497 150.364641,125 150.828729,125 L161.171271,125 C161.635359,125 162,125.370497 162,125.842039 L162,140.156698 C162,140.459832 161.834254,140.746125 161.569061,140.897692 C161.303867,141.049259 160.972376,141.032418 160.723757,140.84717 L155.983425,137.647423 L151.276243,140.864011 C151.143646,140.948215 150.977901,140.998737 150.812155,140.998737 Z M155.983425,135.778096 C156.149171,135.778096 156.298343,135.828619 156.447514,135.912823 L160.325967,138.556824 L160.325967,126.684078 L151.640884,126.684078 L151.640884,138.590506 L155.519337,135.946504 C155.668508,135.828619 155.81768,135.778096 155.983425,135.778096 Z" id="Shape"></path>
                    </g>
                </g>
            </g>
        </g>
    </g>
</svg>