<?xml version="1.0" encoding="UTF-8"?>
<svg width="22px" height="22px" viewBox="0 0 22 22" version="1.1" xmlns="http://www.w3.org/2000/svg" xmlns:xlink="http://www.w3.org/1999/xlink">
    <!-- Generator: Sketch 56.3 (81716) - https://sketch.com -->
    <title>noun_Ruler_1362955</title>
    <desc>Created with Sketch.</desc>
    <g id="Personaliser---Necklaces" stroke="none" stroke-width="1" fill="none" fill-rule="evenodd">
        <g id="Necklaces---Customiser---Length---Scroll---Size-Guide" transform="translate(-245.000000, -497.000000)" fill="#183E3F" fill-rule="nonzero">
            <g id="noun_Ruler_1362955" transform="translate(245.000000, 497.000000)">
                <path d="M0.0733333333,15.9622222 L6.03777778,21.9266667 L21.9266667,6.03777778 L15.9622222,0.0733333333 L0.0733333333,15.9622222 Z M18.9933333,7.57777778 L17.0915556,5.676 L16.4022222,6.37511111 L18.304,8.27688889 L17.0817778,9.48688889 L15.8888889,8.27688889 L15.1971111,8.96866667 L16.4071111,10.1786667 L15.1433333,11.4424444 L13.2366667,9.53333333 L12.5448889,10.2251111 L14.4466667,12.1268889 L13.2904444,13.2831111 L12.0804444,12.0731111 L11.3886667,12.7648889 L12.5986667,13.9748889 L11.3764444,15.1971111 L9.47466667,13.2953333 L8.8,13.9822222 L10.6968889,15.8888889 L6.03777778,20.5333333 L1.46666667,15.9622222 L15.9622222,1.46666667 L20.5333333,6.03777778 L18.9933333,7.57777778 Z" id="Shape"></path>
                <path d="M4.83022222,14.7253333 C4.15545946,15.4003 4.15556964,16.4944548 4.83046832,17.1692856 C5.505367,17.8441163 6.59952189,17.8441163 7.27442057,17.1692856 C7.94931925,16.4944548 7.94942943,15.4003 7.27466667,14.7253333 C6.95054714,14.4011159 6.51088793,14.2189642 6.05244444,14.2189642 C5.59400096,14.2189642 5.15434175,14.4011159 4.83022222,14.7253333 L4.83022222,14.7253333 Z M6.58288889,16.4755556 C6.28616439,16.7592691 5.8187245,16.7592691 5.522,16.4755556 C5.30725717,16.2609744 5.2429487,15.9381506 5.35907011,15.6576593 C5.47519152,15.377168 5.74886655,15.1942669 6.05244444,15.1942669 C6.35602234,15.1942669 6.62969737,15.377168 6.74581878,15.6576593 C6.86194019,15.9381506 6.79763171,16.2609744 6.58288889,16.4755556 L6.58288889,16.4755556 Z" id="Shape"></path>
            </g>
        </g>
    </g>
</svg>