<svg xmlns="http://www.w3.org/2000/svg" width="17" height="22" viewBox="0 0 17 22">
  <g fill="#FFF" stroke="#FFF" stroke-width=".76" transform="translate(1 1)">
    <path d="M14.6951436,20 L0.304851265,20 C0.221402797,20 0.141609007,19.9638139 0.0843523938,19.8998419 C0.0270957808,19.83587 -0.00335986443,19.7499279 0.000294812997,19.6614011 L0.685546831,5.87685516 C0.693465298,5.70432482 0.826861024,5.56927298 0.990103283,5.56927298 L14.0098916,5.56927298 C14.1725248,5.56927298 14.3065296,5.70432482 14.3144481,5.87685516 L14.9997001,19.6614011 C15.0033548,19.7499279 14.9735082,19.83587 14.9156425,19.8998419 C14.8577768,19.9638139 14.777983,20 14.6951436,20 Z M0.624026427,19.3538189 L14.3753594,19.3538189 L13.7193448,6.21545403 L1.28004103,6.21545403 L0.624026427,19.3538189 Z"/>
    <path d="M10.9324725,7.95610425 C10.7571973,7.95610425 10.614945,7.7994302 10.614945,7.60638538 L10.614945,4.13017983 C10.614945,2.23890019 9.21782388,0.699437736 7.5,0.699437736 C5.78217612,0.699437736 4.38505504,2.23890019 4.38505504,4.13017983 L4.38505504,7.60638538 C4.38505504,7.7994302 4.24280271,7.95610425 4.06752752,7.95610425 C3.89225233,7.95610425 3.75,7.7994302 3.75,7.60638538 L3.75,4.13017983 C3.75,1.85281056 5.4322608,0 7.5,0 C9.5677392,0 11.25,1.85281056 11.25,4.13017983 L11.25,7.60638538 C11.25,7.7994302 11.1083827,7.95610425 10.9324725,7.95610425 Z"/>
  </g>
</svg>
