<svg xmlns="http://www.w3.org/2000/svg" width="20" height="20" viewBox="0 0 20 20">
  <g fill="#183E3F" stroke="#183E3F" stroke-width=".5" transform="translate(1 1)">
    <path d="M16.6853933,0.101123596 L4.14606742,0.101123596 C3.47683146,0.101123596 2.93258427,0.645370787 2.93258427,1.31460674 L2.93258427,13.8539326 C2.93258427,14.5231685 3.47683146,15.0674157 4.14606742,15.0674157 L16.6853933,15.0674157 C17.3546292,15.0674157 17.8988764,14.5231685 17.8988764,13.8539326 L17.8988764,1.31460674 C17.8988764,0.645370787 17.3546292,0.101123596 16.6853933,0.101123596 Z M17.0898876,13.8539326 C17.0898876,14.0772135 16.9082697,14.258427 16.6853933,14.258427 L4.14606742,14.258427 C3.92319101,14.258427 3.74157303,14.0772135 3.74157303,13.8539326 L3.74157303,1.31460674 C3.74157303,1.09132584 3.92319101,0.91011236 4.14606742,0.91011236 L16.6853933,0.91011236 C16.9082697,0.91011236 17.0898876,1.09132584 17.0898876,1.31460674 L17.0898876,13.8539326 Z M14.258427,16.6853933 C14.258427,16.9086742 14.076809,17.0898876 13.8539326,17.0898876 L1.31460674,17.0898876 C1.09173034,17.0898876 0.91011236,16.9086742 0.91011236,16.6853933 L0.91011236,4.14606742 C0.91011236,3.92278652 1.09173034,3.74157303 1.31460674,3.74157303 L1.71910112,3.74157303 L1.71910112,2.93258427 L1.31460674,2.93258427 C0.645370787,2.93258427 0.101123596,3.47683146 0.101123596,4.14606742 L0.101123596,16.6853933 C0.101123596,17.3546292 0.645370787,17.8988764 1.31460674,17.8988764 L13.8539326,17.8988764 C14.5231685,17.8988764 15.0674157,17.3546292 15.0674157,16.6853933 L15.0674157,16.2808989 L14.258427,16.2808989 L14.258427,16.6853933 Z"/>
    <g transform="matrix(-1 0 0 1 14.764 3.64)">
      <path d="M4.75117989,4.09534637 C4.59776605,3.94557197 4.34827487,3.94557197 4.19486104,4.09534637 C3.73461954,4.54466956 2.98459637,4.54466956 2.52435487,4.09534637 L1.13278294,2.73678669 C0.909635549,2.51893303 0.78721441,2.22997434 0.78721441,1.92134831 C0.78721441,1.61272229 0.909635549,1.3237636 1.13278294,1.10590994 C1.59302444,0.656586747 2.34149798,0.656586747 2.80328911,1.10590994 L3.65868745,1.94101566 C3.81210128,2.09079006 4.06159246,2.09079006 4.21500629,1.94101566 C4.36842012,1.79124126 4.36842012,1.54766876 4.21500629,1.39789436 L3.35960796,0.56278864 C2.5925388,-0.186083341 1.34353326,-0.186083341 0.576464096,0.56278864 C0.204551776,0.925878085 0,1.4069716 0,1.92134831 C0,2.43421216 0.204551776,2.91681854 0.576464096,3.27990799 L1.96803603,4.63846766 C2.35234542,5.01214722 2.85597669,5.19974343 3.35960796,5.19974343 C3.86323922,5.19974343 4.36687049,5.01214722 4.75117989,4.63846766 C4.90459372,4.48869327 4.90459372,4.24512076 4.75117989,4.09534637 Z"/>
      <path d="M7.29568001,4.40548527 L5.90410808,3.04692559 C5.13703892,2.29805361 3.88803338,2.29805361 3.12096422,3.04692559 C2.96755039,3.19669999 2.96755039,3.44027249 3.12096422,3.59004689 C3.27437805,3.73982129 3.52386923,3.73982129 3.67728306,3.59004689 C4.13752456,3.1407237 4.8859981,3.1407237 5.34778923,3.59004689 L6.73936116,4.94860656 C6.96250855,5.16646023 7.08492969,5.45541892 7.08492969,5.76404494 C7.08492969,6.07267097 6.96250855,6.36162966 6.73936116,6.57948332 C6.29306638,7.01519066 5.51514978,7.01519066 5.06885499,6.57948332 L4.21500629,5.7443776 C4.06159246,5.5946032 3.81210128,5.5946032 3.65868745,5.7443776 C3.50527361,5.894152 3.50527361,6.1377245 3.65868745,6.28749889 L4.51408578,7.12109175 C4.8859981,7.48418119 5.38033156,7.68388039 5.90565771,7.68388039 C6.43098386,7.68388039 6.92531732,7.48418119 7.29722964,7.12109175 C7.66914196,6.7580023 7.87369374,6.27539591 7.87369374,5.76253207 C7.8721441,5.24966823 7.66759233,4.76857471 7.29568001,4.40548527 Z"/>
    </g>
  </g>
</svg>
