<svg xmlns="http://www.w3.org/2000/svg" xmlns:xlink="http://www.w3.org/1999/xlink" width="392.924" height="65.052" viewBox="0 0 392.924 65.052">
  <defs>
    <clipPath id="clip-path">
      <rect id="Rectangle_1" data-name="Rectangle 1" width="392.924" height="65.052" fill="none"/>
    </clipPath>
  </defs>
  <g id="Group_2" data-name="Group 2" transform="translate(0 0)">
    <g id="Group_1" data-name="Group 1" transform="translate(0 0)" clip-path="url(#clip-path)">
      <path id="Path_1" data-name="Path 1" d="M53.338,17.648c-3.549-2.982-5.262-4.334-5.262-6.745,0-2.335,2.064-3.479,4.343-3.479,4.467,0,5.6,4.49,5.6,5.188A4.163,4.163,0,0,1,57.6,14.1l.561.211a4.32,4.32,0,0,0,.5-2.132L58.587,9.84a10.2,10.2,0,0,1,.144-1.982l-1.766-.639a13.159,13.159,0,0,0-4.833-.938c-6.673,0-6.817,5.472-6.817,6.121,0,3.191,1.485,4.465,7.027,9.147,3.907,3.271,5.9,4.98,5.9,8.318a6.032,6.032,0,0,1-6.322,6.169c-5.33,0-8.524-5.178-8.524-7.313a5.25,5.25,0,0,1,.355-1.84l-.567-.075c-.432,1.139-.432,1.352-.432,3.554,0,.352.147,1.785.505,4.195,6.532,2.477,6.744,2.559,9.368,2.559,3.7,0,8.881-2.412,8.881-8.1,0-3.918-1.921-6.183-8.169-11.373" transform="translate(3.126 0.459)" fill="#a88f59"/>
      <path id="Path_2" data-name="Path 2" d="M367.24,29.344a4.8,4.8,0,0,1-1.355,3.121,10.448,10.448,0,0,1-2.976,1.713,16.247,16.247,0,0,1-7.25,1.5c-2.624,0-5.117-.424-5.117-2.551V10.388c0-1.635.708-3.188,2.773-3.188.42,0,.931.064,1.35.064V6.62a6.485,6.485,0,0,0-1.2-.075c-1.847,0-4.053.358-4.831.358-1.062,0-3.058-.358-3.978-.358a10.407,10.407,0,0,0-2.132.233v.628a16.712,16.712,0,0,1,1.779-.142,7.922,7.922,0,0,1,1.347.077,5.115,5.115,0,0,1,1.492,4.254V31.765c0,1.917,0,3.276-1.641,4.19a6.345,6.345,0,0,1-1.334.219c-.429,0-.857-.072-1.285-.072v.7c.208,0,.5.073.705.073.358,0,1.282-.073,2.279-.142,1.063-.059,2.193-.148,2.975-.148,2.279,0,12.145.217,15.278.29a29.116,29.116,0,0,1,2.191-3.2,9.51,9.51,0,0,0,1.569-4.338Z" transform="translate(25.049 0.479)" fill="#a88f59"/>
      <path id="Path_3" data-name="Path 3" d="M156.138,17.183V5.677c0-1.566,0-4.827,3.84-4.827a5.894,5.894,0,0,1,1.067.138V.216A7.69,7.69,0,0,0,158.635,0c-.644,0-3.776.354-4.481.354S150.11,0,149.392,0A9.011,9.011,0,0,0,147.9.075V.93c1.492-.08,1.641-.08,1.917-.08,1.074,0,2.343,1.14,2.343,3.988V32.243c0,2.26-.492,3.126-1.06,3.693a2.784,2.784,0,0,1-1,.548c-.034,0-.09.024-.133.024-.287,0-.43,0-1.921-.075v.85a9.423,9.423,0,0,0,1.491.072c.721,0,4.053-.35,4.758-.35,1.7,0,3.841.208,4.69.208a11.094,11.094,0,0,0,1.919-.147v-.713h-2.127a4,4,0,0,1-2.635-3.963V18.455h20.674V31.824c0,2.335-.927,4.53-2.488,4.53-.71,0-1.494-.057-2.2-.057v.769c1.272.083,1.707.147,2.629.147.992,0,2.907-.358,4.046-.358,1.205,0,2.774.358,5.323.358a6.3,6.3,0,0,0,1.141-.064V36.3a6.775,6.775,0,0,1-1.071.057,4.239,4.239,0,0,1-2.057-.482c-.42-.294-1.341-1.422-1.341-4.048V5.4c0-2.626.922-3.767,1.341-4.046a4.135,4.135,0,0,1,2.057-.5,4.815,4.815,0,0,1,1.071.08V.075A5.415,5.415,0,0,0,184.118,0C181.569,0,180,.354,178.8.354,177.657.354,175.741,0,174.75,0c-.922,0-1.357.075-2.629.136V.93c.71,0,1.494-.08,2.2-.08,1.56,0,2.488,2.2,2.488,4.549V17.183Z" transform="translate(10.816 0)" fill="#a88f59"/>
      <path id="Path_4" data-name="Path 4" d="M24.015,33.45c-3.059,1.919-6.114,2.563-10.234,2.563-4.609,0-5.039-1.146-5.039-2.776V3.776a3.193,3.193,0,0,1,.919-2.423c.358-.365.934-.5,2.066-.5a7.4,7.4,0,0,1,1.417.074V.138C12.289.071,11.509,0,10.593,0,9.024,0,7.182.426,6.539.426,5.825.426,3.843,0,1.779,0A14.7,14.7,0,0,0,0,.138V.924A5.953,5.953,0,0,1,1.144.85c3.615,0,3.615,3.132,3.615,5.964V33.093c0,2.206-.708,3.4-3.122,3.4a8.753,8.753,0,0,1-1.28-.063v.78a6.7,6.7,0,0,0,1.21.142,12.556,12.556,0,0,0,1.275-.142H17.761c2.05,0,4.193.067,6.253.142.28-1.2,2.333-3.9,2.841-4.695a5.876,5.876,0,0,0,1.133-3.832H27.48c-.208,2.346-1.487,3.416-3.465,4.623" transform="translate(0 0)" fill="#a88f59"/>
      <path id="Path_5" data-name="Path 5" d="M34.191,6.831c-.569,0-3.479-.287-4.12-.287A9.052,9.052,0,0,0,27.8,6.78v.626a12.172,12.172,0,0,1,1.5-.064,13.882,13.882,0,0,1,1.632.064c1.205,1.068,1.488,1.707,1.488,4.188V31.347c0,3.1-.355,3.608-1.277,4.532a9.057,9.057,0,0,1-1.419.075,10.9,10.9,0,0,1-1.564-.075v.711a7.86,7.86,0,0,0,1.347.144c.642,0,3.771-.278,4.476-.278s4.259.278,5.115.278a2.748,2.748,0,0,0,1.207-.144v-.711a9.961,9.961,0,0,1-1.491.138,9.294,9.294,0,0,1-1.424-.138,4.488,4.488,0,0,1-1.345-3.2V10.306c0-1.758.92-2.965,2.7-2.965a11.545,11.545,0,0,1,1.557.064V6.78a12.91,12.91,0,0,0-1.846-.236c-.564,0-3.551.287-4.262.287" transform="translate(2.033 0.478)" fill="#a88f59"/>
      <path id="Path_6" data-name="Path 6" d="M84.224,6.159l-3.76.35c-1.063.07-3.409.144-4.125.144-1.694,0-5.249-.144-6.6-.219-.644,0-3.621-.347-3.834-.347a3.162,3.162,0,0,0-.786.072c-.214.572-.57,1.419-.852,1.98-.284.646-1.139,2.071-2.064,3.709.145.077.292.273.43.348,1-1.707,2.635-4.393,8.233-4.393,2.778,0,2.778.556,2.778,2.686v19.46c0,3.982-.571,4.543-1.843,6.04a11.413,11.413,0,0,1-1.43.063,9.487,9.487,0,0,1-1.341-.063v.78h2.4c.5,0,2.776-.278,3.7-.278s3.268.278,4.267.278c.92,0,.92,0,2.125-.064v-.716l-1.844.063c-.922,0-2.419-.854-2.419-4.392V9.216c0-.709.075-1.339,2.493-1.339,3.122,0,5.6,0,5.6,2.113,0,.855-.351,1.355-1.2,2.636l.5.208C86.432,10.784,87.2,9.36,87.2,8.58c0-1.643-.633-2.421-2.979-2.421" transform="translate(4.549 0.445)" fill="#a88f59"/>
      <path id="Path_7" data-name="Path 7" d="M279.822,6.573c-2.56,0-4.69-.147-6.318-.208-1.634-.128-2.769-.208-3.481-.208a12.763,12.763,0,0,0-2.41.208v.71c.494,0,.992-.07,2.2-.07,1.483,0,2.269.5,2.269,3.972V31.943c0,2.335-.786,4.254-2.479,4.254a6.785,6.785,0,0,1-1.988-.215v.781c.852.065,1.412.142,1.907.142.573,0,3.416-.207,4.049-.207,2.21.065,4.334.065,6.539.065v-.781a11.087,11.087,0,0,1-1.422.064c-1.205,0-2.979-.764-2.979-4.04V21.5c6.594-.142,7.17.136,9.371,1.769a7.783,7.783,0,0,1,.206,2.349h.577a9.93,9.93,0,0,0-.577-3.693c-.766-1.775-.342-3.768-1.277-6.178l-.563.208a15,15,0,0,1,.5,1.994c0,2.2-3.7,2.2-8.238,2.2V9.281c0-.575,0-1.488,2.2-1.488a24.925,24.925,0,0,1,6.1.71c3.617,1.074,4.062,2.475,4.34,4.471l.5-.062a12.132,12.132,0,0,0-1.836-6.754,62.314,62.314,0,0,1-7.185.416" transform="translate(19.571 0.45)" fill="#a88f59"/>
      <path id="Path_8" data-name="Path 8" d="M201.718,35.646c-8.381,0-14.025-7.69-14.025-15.57,0-8.1,5.769-12.177,12.521-12.177,8.379,0,13.818,7.626,13.818,15.509,0,8.1-5.564,12.238-12.314,12.238M228.643,16.22V9.355c0-1.221.861-1.488,1.788-1.488,2.982,0,9.3,0,9.3,6.164,0,4.2-3.714,5.981-7.828,5.981a40.711,40.711,0,0,1-7.3-.809c-4.781-.767-7.5-4.185-9.155-6.248l-.014-.038a13.114,13.114,0,0,0-1.157-1.5c-.01-.016-.05-.07-.065-.088l.015.029c-2.7-3.043-7.048-5.208-13.184-5.208-12.219,0-16.615,9.793-16.615,16.909,0,6.747,5.254,14.116,16.615,14.116,12.218,0,16.49-9.79,16.616-16.9,0-.1-.011-.235-.011-.337a14.147,14.147,0,0,0-2.376-5.5c.468.579,1.205,1.376,1.847,2.073v-.016a17.529,17.529,0,0,0,8.126,5.331V32.573c0,1.774,0,2.193-.995,3.33a4.781,4.781,0,0,1-1.7.3,10.3,10.3,0,0,1-1.417-.072v.7a15.8,15.8,0,0,0,1.983.072c.425,0,.924-.072,1.638-.142.778-.058,1.841-.144,2.555-.144,1.485.086,2.129.144,2.626.214.567.072,1,.152,1.273.152a6.8,6.8,0,0,0,1.421-.152v-.7c-.494,0-.921.072-1.421.072-2.478,0-2.56-2.493-2.56-5.411,0,0,.009-8.444.04-8.444a9.418,9.418,0,0,1,4.874,3.151l5.249,7.146c2.947,4.238,5.184,4.342,7.172,4.342a16.016,16.016,0,0,0,3.228-.267c.021-.005.043-.005.07-.013a5.569,5.569,0,0,0,3.369-1.513c4.906,1.865,5.31,1.934,7.691,1.934,3.7,0,8.882-2.412,8.882-8.1,0-3.917-1.919-6.18-8.169-11.37-3.551-2.984-5.258-4.331-5.258-6.745,0-2.338,2.071-3.482,4.339-3.482,4.469,0,5.615,4.487,5.615,5.188a4.119,4.119,0,0,1-.436,1.491l.572.211a4.4,4.4,0,0,0,.491-2.132l-.061-2.335a10.625,10.625,0,0,1,.138-1.989l-1.774-.639a13.112,13.112,0,0,0-4.834-.938c-6.673,0-6.819,5.473-6.819,6.122,0,3.187,1.5,4.464,7.032,9.146,3.909,3.271,5.9,4.975,5.9,8.319a6.031,6.031,0,0,1-6.316,6.169c-3.413,0-6.054-2.8-7.445-4.885l-.005.011-.008-.011c-1.451,2.886-3.171,4.539-4.828,5.008-1.564-.29-3.226-1.312-4.848-3.744L237.8,23.5c-.057-.08-.107-.15-.168-.233l-5.951-2.125s1.605.07,2.72.021l.207-.024c5.471-.494,8.886-3.135,8.886-7.378,0-7.188-7.182-7.258-9.023-7.258-.709,0-2.916.145-4.332.222l-3.619.206c-1.279.074-3.626-.358-4.617-.358a3.332,3.332,0,0,0-.923.152V7.37a4.336,4.336,0,0,1,.923-.077,5.708,5.708,0,0,1,2.2.337c.639.44,1.133,1.37,1.133,2.99,0,0,0,7.968.019,7.968Z" transform="translate(13.487 0.45)" fill="#a88f59"/>
      <path id="Path_9" data-name="Path 9" d="M121.108,16.038V9.329c0-1.219.849-1.486,1.777-1.486,2.982,0,9.3,0,9.3,6.164,0,4.2-3.276,6.117-7.386,6.117a10.22,10.22,0,0,1-1.752-.142c-.981-.1-4-.42-5.35-.6V32.55c0,1.774,0,2.193-.994,3.33a4.77,4.77,0,0,1-1.705.293,11.168,11.168,0,0,1-1.419-.067v.7a15.847,15.847,0,0,0,1.98.072c.432,0,.938-.072,1.643-.142.78-.058,1.841-.144,2.555-.144,1.5.086,2.127.144,2.626.214.561.072.992.152,1.278.152a6.84,6.84,0,0,0,1.426-.152v-.7c-.5,0-.924.067-1.426.067-2.485,0-2.552-2.488-2.552-5.405V21.16a6.182,6.182,0,0,1,4.193,2.491l5.963,8.968c2.771,4.342,5.181,4.342,7.167,4.342h0a20.709,20.709,0,0,0,5.073-.5,4.4,4.4,0,0,0-.148-.635,9.375,9.375,0,0,1-2.5.416,5.132,5.132,0,0,1-1.358-.172,3.269,3.269,0,0,1-.556-.16.02.02,0,0,0-.013-.005c-.179-.067-.353-.149-.551-.228,0,0-.005,0-.005-.008-.168-.086-.342-.187-.513-.293a.45.45,0,0,1-.1-.07c-.155-.1-.3-.182-.459-.3a.433.433,0,0,0-.075-.064c-.157-.128-.328-.254-.484-.407a1.65,1.65,0,0,0-.16-.144c-.134-.133-.265-.278-.411-.425a.287.287,0,0,0-.091-.1c-.163-.181-.321-.377-.473-.571-.054-.062-.1-.121-.155-.2-.163-.219-.328-.45-.5-.7l-4.7-8.927a2.627,2.627,0,0,0-.2-.276l-5.784-2.082s1.41.07,2.466.021l.339-.024c5.462-.494,8.869-3.135,8.869-7.378,0-7.188-7.175-7.258-9.022-7.258-.7,0-2.9.145-4.331.222l-3.621.206c-1.275.074-3.615-.358-4.612-.358a3.3,3.3,0,0,0-.922.152v.644a4.363,4.363,0,0,1,.922-.077,5.7,5.7,0,0,1,2.2.337c.639.44,1.133,1.37,1.133,2.99V19.24Z" transform="translate(8.296 0.474)" fill="#a88f59"/>
      <path id="Path_10" data-name="Path 10" d="M297.308,22.062l3.765-10.222,4.115,10.222Zm46.367,7.31a4.775,4.775,0,0,1-1.345,3.121,10.455,10.455,0,0,1-2.982,1.713,16.233,16.233,0,0,1-7.244,1.5c-2.622,0-5.123-.424-5.123-2.551V10.416c0-1.635.721-3.188,2.774-3.188.434,0,.935.064,1.358.064V6.649a6.6,6.6,0,0,0-1.208-.075c-1.847,0-4.055.358-4.828.358-1.063,0-3.055-.358-3.976-.358a10.338,10.338,0,0,0-2.132.233v.628a16.344,16.344,0,0,1,1.766-.142,8.047,8.047,0,0,1,1.36.077,5.123,5.123,0,0,1,1.488,4.254V31.793c0,1.917,0,3.276-1.63,4.19-.068.054-3.337.054-4.268.054a5.81,5.81,0,0,1-4.331-2.918c-.238-.54-.51-1.2-.85-2.028L302.637,6.154h-.778L291.988,32.29a18.341,18.341,0,0,1-1.635,2.779c-.081.122-1.07.834-1.139.913a4.4,4.4,0,0,1-1.143.147c-.349,0-.716-.085-1.056-.085v.66a6.4,6.4,0,0,0,1.207.059c.7,0,1.773-.148,3.111-.148,1.074,0,2.71.148,3.848.148a7.772,7.772,0,0,0,1.2-.059v-.66c-.494,0-1,.085-1.483.085-1.358,0-1.779-1.21-1.779-2.2a7.492,7.492,0,0,1,.492-2.335l3.126-8.385h8.877l3.831,9.507a4.183,4.183,0,0,1,.356,1.635c0,.93-.489,1.5-.846,1.556a4.938,4.938,0,0,1-1.071.142,7.7,7.7,0,0,1-1.272-.142v.8a9.72,9.72,0,0,0,1.272.059c.995,0,2.421-.279,4.046-.279,1.35,0,5.539.274,5.539.274.052,0,.219,0,.427.005,0,0,3.581.058,4.41,0,1.063-.059,2.2-.148,2.979-.148,2.269,0,12.149.217,15.272.29a28.566,28.566,0,0,1,2.2-3.2,9.715,9.715,0,0,0,1.553-4.338Z" transform="translate(20.989 0.45)" fill="#a88f59"/>
      <path id="Path_11" data-name="Path 11" d="M99.118,35.349c-2.055,0-3.126,0-3.126-1.558V21.226c7.313,0,9.021.209,9.871,3.613h.5v-1c0-.48-1.074-3.184-1.146-3.826-.131-.855,0-2.2-.208-3.057a2.39,2.39,0,0,0-.572-1.132c-.138.069-.347.069-.5.133a4.956,4.956,0,0,1,.436,1.713c0,2.06-2.132,2.06-4.051,2.06H95.992V9.221a3.349,3.349,0,0,1,.357-1.077,4.968,4.968,0,0,1,2.48-.561c1.638,0,9.521.224,9.94,5.112h.436a7.984,7.984,0,0,0-.138-1.845c0-.063-1.566-4.034-1.78-4.831-2.488.362-2.846.417-8.879.417-1.345,0-7.742-.136-9.238-.056l-1.063.056v1.37l1.987-.167c1.989,0,2.277,1.22,2.277,3.147v21.38c0,2.26-.348,3.89-3.271,3.89a7.744,7.744,0,0,1-1.344-.144v.8a18,18,0,0,0,2.268.059c1.294,0,2.56-.148,3.838-.148,2.349,0,4.759.148,7.105.148,1.275,0,4.046,0,4.973.069.711.073,1.417.152,2.2.293a11,11,0,0,1,1.711-2.778c1.491-2.14,1.7-2.407,1.774-4.187h-.5c-1.069,5.179-8.594,5.179-12.006,5.179" transform="translate(6.418 0.44)" fill="#a88f59"/>
      <path id="Path_12" data-name="Path 12" d="M84.1,11.435c1.037-1.069,2.432-3.576,6.271-3.818l.669-1.264a11.259,11.259,0,0,0-4.115.449,9.854,9.854,0,0,0-2.915,2.945c-.046.179.09,1.689.09,1.689" transform="translate(6.143 0.463)" fill="#a88f59"/>
      <path id="Path_13" data-name="Path 13" d="M33.288,59.369c.052.469.143,1.2.7,1.38a2.826,2.826,0,0,0,.846.117c.065,0,.105.013.105.064,0,.078-.118.117-.274.117-.287,0-1.692-.039-2.174-.077-.3-.026-.365-.064-.365-.13s.027-.078.091-.091.078-.235.053-.469l-.625-6.717h-.04l-3.189,6.769c-.273.573-.312.689-.429.689-.091,0-.157-.13-.4-.6-.339-.637-1.458-2.89-1.523-3.02-.118-.234-1.575-3.359-1.719-3.71h-.052l-.522,6.041c-.013.207-.013.442-.013.663a.417.417,0,0,0,.339.4,2.369,2.369,0,0,0,.494.065c.053,0,.105.026.105.064,0,.091-.078.117-.235.117-.481,0-1.106-.039-1.21-.039s-.742.039-1.094.039c-.13,0-.221-.026-.221-.117,0-.039.064-.064.131-.064a1.645,1.645,0,0,0,.39-.04c.43-.077.469-.586.522-1.08l.937-8.488c.026-.143.065-.234.143-.234s.131.053.2.2l3.985,8.188,3.827-8.175c.052-.117.1-.208.2-.208s.13.1.156.352Z" transform="translate(1.604 3.731)" fill="#a88f59"/>
      <path id="Path_14" data-name="Path 14" d="M44.818,51.023c2.93,0,5.117,1.849,5.117,4.883a5.11,5.11,0,0,1-5.2,5.324,4.881,4.881,0,0,1-5.05-5.117,5.04,5.04,0,0,1,5.128-5.09m.274,9.712c1.172,0,3.593-.677,3.593-4.465,0-3.124-1.9-4.8-3.957-4.8-2.174,0-3.8,1.432-3.8,4.283,0,3.034,1.822,4.986,4.166,4.986" transform="translate(2.903 3.731)" fill="#a88f59"/>
      <path id="Path_15" data-name="Path 15" d="M66.7,59.369c.052.469.143,1.2.7,1.38a2.826,2.826,0,0,0,.846.117c.065,0,.1.013.1.064,0,.078-.116.117-.273.117-.287,0-1.692-.039-2.174-.077-.3-.026-.365-.064-.365-.13s.027-.078.091-.091.078-.235.053-.469l-.625-6.717h-.04l-3.189,6.769c-.274.573-.312.689-.429.689-.091,0-.157-.13-.4-.6-.338-.637-1.457-2.89-1.522-3.02-.118-.234-1.575-3.359-1.719-3.71H57.7l-.522,6.041c-.013.207-.013.442-.013.663a.417.417,0,0,0,.339.4,2.369,2.369,0,0,0,.494.065c.053,0,.105.026.105.064,0,.091-.078.117-.235.117-.481,0-1.106-.039-1.21-.039s-.742.039-1.094.039c-.13,0-.221-.026-.221-.117,0-.039.064-.064.131-.064a1.645,1.645,0,0,0,.39-.04c.43-.077.469-.586.522-1.08l.937-8.488c.026-.143.065-.234.143-.234s.131.053.2.2l3.985,8.188,3.827-8.175c.052-.117.1-.208.2-.208s.13.1.156.352Z" transform="translate(4.048 3.731)" fill="#a88f59"/>
      <path id="Path_16" data-name="Path 16" d="M74.561,54.976c0-2.031,0-2.4-.026-2.812-.026-.443-.131-.652-.56-.743a2.455,2.455,0,0,0-.442-.04c-.053,0-.1-.026-.1-.077,0-.078.064-.105.208-.105.586,0,1.406.041,1.471.041.091,0,2.681,0,2.981-.014a3.353,3.353,0,0,0,.559-.065c.065-.012.118-.064.182-.064.039,0,.052.053.052.117,0,.091-.064.248-.1.612-.013.131-.04.7-.065.859-.013.067-.04.144-.091.144-.078,0-.1-.065-.1-.168a1.4,1.4,0,0,0-.078-.47c-.091-.207-.221-.364-.924-.442-.222-.026-1.641-.039-1.784-.039-.052,0-.078.039-.078.13v3.593c0,.091.013.131.078.131.168,0,1.771,0,2.069-.027.313-.026.495-.052.613-.181.091-.1.143-.171.2-.171s.064.027.064.105-.064.3-.1.729c-.026.261-.052.742-.052.833s0,.248-.091.248c-.065,0-.091-.052-.091-.117a1.311,1.311,0,0,0-.053-.429c-.052-.182-.168-.4-.676-.456-.352-.039-1.641-.065-1.862-.065a.083.083,0,0,0-.091.091v1.146c0,.442-.013,1.952,0,2.226.04.9.234,1.068,1.51,1.068a3.722,3.722,0,0,0,1.25-.144c.338-.144.495-.4.586-.937.026-.144.052-.2.117-.2s.078.1.078.2a12.66,12.66,0,0,1-.17,1.263c-.091.338-.2.338-.7.338-1.966,0-2.838-.078-3.215-.078-.065,0-.885.039-1.276.039-.143,0-.209-.026-.209-.1,0-.039.027-.079.105-.079a2.007,2.007,0,0,0,.39-.05c.261-.053.326-.339.378-.717.065-.546.065-1.575.065-2.824Z" transform="translate(5.37 3.737)" fill="#a88f59"/>
      <path id="Path_17" data-name="Path 17" d="M87.183,59.277c.026,1.067.156,1.406.508,1.51a2.825,2.825,0,0,0,.651.077c.064,0,.1.027.1.079,0,.077-.078.1-.235.1-.742,0-1.262-.039-1.38-.039s-.663.039-1.249.039c-.13,0-.208-.012-.208-.1,0-.053.039-.079.1-.079a1.846,1.846,0,0,0,.533-.077c.325-.091.391-.468.391-1.654l.013-7.458c0-.509.04-.651.143-.651s.326.287.456.416c.2.221,2.134,2.317,4.14,4.465,1.289,1.38,2.708,2.968,3.124,3.4l-.143-6.614c-.013-.846-.1-1.131-.508-1.236a3.541,3.541,0,0,0-.639-.065c-.091,0-.1-.039-.1-.091,0-.077.1-.09.261-.09.586,0,1.21.04,1.353.04s.573-.04,1.107-.04c.143,0,.234.013.234.09,0,.053-.052.091-.143.091a1.1,1.1,0,0,0-.312.041c-.43.09-.483.377-.483,1.158l-.026,7.628c0,.86-.026.924-.117.924s-.261-.142-.951-.833c-.143-.13-2.017-2.043-3.4-3.527-1.51-1.628-2.981-3.268-3.4-3.737Z" transform="translate(6.243 3.731)" fill="#a88f59"/>
      <path id="Path_18" data-name="Path 18" d="M105.976,57.273c0,1.249,0,2.278.065,2.824.039.378.117.664.508.717a5.723,5.723,0,0,0,.586.052c.077,0,.1.04.1.078,0,.064-.065.1-.209.1-.716,0-1.536-.04-1.6-.04s-.885.04-1.275.04c-.143,0-.209-.027-.209-.1,0-.039.027-.078.105-.078a2.009,2.009,0,0,0,.39-.052c.261-.053.326-.339.378-.717.065-.546.065-1.575.065-2.824V51.766l-1.926.027c-.807.013-1.119.1-1.329.416a2.274,2.274,0,0,0-.221.4c-.039.1-.078.13-.13.13s-.065-.039-.065-.117c0-.13.261-1.249.287-1.354.026-.077.078-.247.13-.247a2.37,2.37,0,0,0,.573.156c.378.04.872.067,1.028.067h4.882a6.265,6.265,0,0,0,1.289-.131c.065,0,.065.078.065.156,0,.391-.04,1.289-.04,1.433,0,.118-.039.168-.09.168s-.091-.039-.1-.221l-.013-.142c-.053-.392-.352-.691-1.6-.717l-1.64-.027Z" transform="translate(7.402 3.731)" fill="#a88f59"/>
      <path id="Path_19" data-name="Path 19" d="M115.39,60.879c-.184-.091-.2-.144-.2-.495,0-.65.053-1.172.067-1.38.013-.144.038-.208.1-.208s.091.04.091.143a2.39,2.39,0,0,0,.038.483,1.773,1.773,0,0,0,1.928,1.327,1.738,1.738,0,0,0,1.861-1.732c0-.9-.379-1.42-1.5-2.343l-.585-.482c-1.381-1.133-1.693-1.94-1.693-2.826,0-1.393,1.042-2.344,2.695-2.344a5.039,5.039,0,0,1,1.212.131,2.169,2.169,0,0,0,.455.065c.1,0,.131.026.131.091s-.053.495-.053,1.379c0,.208-.025.3-.091.3s-.091-.064-.1-.168a2.307,2.307,0,0,0-.168-.65c-.077-.144-.43-.691-1.627-.691a1.48,1.48,0,0,0-1.6,1.51c0,.743.365,1.186,1.589,2.187l.363.287c1.537,1.212,1.9,2.019,1.9,3.059a2.693,2.693,0,0,1-1.106,2.16,3.412,3.412,0,0,1-1.965.547,3.96,3.96,0,0,1-1.745-.351" transform="translate(8.424 3.731)" fill="#a88f59"/>
      <path id="Path_20" data-name="Path 20" d="M137.868,57.26c0,1.249,0,2.278.065,2.824.039.378.117.664.508.717a5.748,5.748,0,0,0,.586.052c.077,0,.1.04.1.078,0,.064-.065.1-.209.1-.716,0-1.536-.04-1.6-.04s-.886.04-1.276.04c-.143,0-.209-.027-.209-.1,0-.039.027-.078.105-.078a2.009,2.009,0,0,0,.39-.052c.261-.053.326-.339.378-.717.065-.546.065-1.575.065-2.824V54.969c0-2.03,0-2.4-.026-2.812-.026-.443-.157-.664-.443-.73a1.721,1.721,0,0,0-.4-.052c-.053,0-.105-.027-.105-.078,0-.078.065-.1.208-.1.429,0,1.25.04,1.316.04s.884-.04,1.275-.04c.144,0,.209.026.209.1,0,.052-.053.078-.105.078a1.87,1.87,0,0,0-.325.04c-.352.064-.456.285-.482.742-.026.416-.026.781-.026,2.812Z" transform="translate(9.931 3.744)" fill="#a88f59"/>
      <path id="Path_21" data-name="Path 21" d="M147.345,59.277c.026,1.067.156,1.406.508,1.51a2.824,2.824,0,0,0,.651.077c.064,0,.1.027.1.079,0,.077-.078.1-.235.1-.742,0-1.262-.039-1.38-.039s-.663.039-1.249.039c-.13,0-.208-.012-.208-.1,0-.053.039-.079.1-.079a1.846,1.846,0,0,0,.533-.077c.325-.091.391-.468.391-1.654l.013-7.458c0-.509.04-.651.143-.651s.326.287.456.416c.2.221,2.136,2.317,4.14,4.465,1.289,1.38,2.708,2.968,3.124,3.4l-.143-6.614c-.013-.846-.1-1.131-.508-1.236a3.541,3.541,0,0,0-.639-.065c-.091,0-.1-.039-.1-.091,0-.077.1-.09.261-.09.586,0,1.21.04,1.353.04s.573-.04,1.107-.04c.143,0,.234.013.234.09,0,.053-.052.091-.143.091a1.1,1.1,0,0,0-.312.041c-.43.09-.483.377-.483,1.158l-.026,7.628c0,.86-.026.924-.117.924s-.261-.142-.951-.833c-.143-.13-2.017-2.043-3.4-3.527-1.51-1.628-2.981-3.268-3.4-3.737Z" transform="translate(10.643 3.731)" fill="#a88f59"/>
      <path id="Path_22" data-name="Path 22" d="M174.93,57.273c0,1.249,0,2.278.065,2.824.039.378.117.664.508.717a5.723,5.723,0,0,0,.586.052c.077,0,.1.04.1.078,0,.064-.065.1-.209.1-.716,0-1.536-.04-1.6-.04s-.885.04-1.275.04c-.143,0-.209-.027-.209-.1,0-.039.027-.078.105-.078a2.009,2.009,0,0,0,.39-.052c.261-.053.326-.339.378-.717.065-.546.065-1.575.065-2.824V51.766l-1.926.027c-.807.013-1.119.1-1.329.416a2.273,2.273,0,0,0-.221.4c-.039.1-.078.13-.13.13s-.065-.039-.065-.117c0-.13.261-1.249.287-1.354.026-.077.078-.247.13-.247a2.371,2.371,0,0,0,.573.156c.378.04.872.067,1.028.067h4.882a6.265,6.265,0,0,0,1.289-.131c.065,0,.065.078.065.156,0,.391-.04,1.289-.04,1.433,0,.118-.039.168-.09.168s-.091-.039-.1-.221l-.014-.142c-.052-.392-.351-.691-1.6-.717l-1.64-.027Z" transform="translate(12.444 3.731)" fill="#a88f59"/>
      <path id="Path_23" data-name="Path 23" d="M186.412,57.26c0,1.249,0,2.278.065,2.824.039.378.117.664.508.717a5.724,5.724,0,0,0,.586.052c.077,0,.1.04.1.078,0,.064-.065.1-.209.1-.715,0-1.536-.04-1.6-.04s-.884.04-1.275.04c-.144,0-.209-.027-.209-.1,0-.039.027-.078.105-.078a2.031,2.031,0,0,0,.39-.052c.262-.053.326-.339.378-.717.067-.546.067-1.575.067-2.824V54.969c0-2.03,0-2.4-.027-2.812-.026-.443-.156-.664-.443-.73a1.722,1.722,0,0,0-.4-.052c-.051,0-.1-.027-.1-.078,0-.078.065-.1.209-.1.429,0,1.249.04,1.314.04s.886-.04,1.277-.04c.142,0,.207.026.207.1,0,.052-.052.078-.1.078a1.87,1.87,0,0,0-.325.04c-.351.064-.455.285-.481.742-.027.416-.027.781-.027,2.812Z" transform="translate(13.481 3.744)" fill="#a88f59"/>
      <path id="Path_24" data-name="Path 24" d="M205.237,59.369c.053.469.144,1.2.7,1.38a2.826,2.826,0,0,0,.846.117c.065,0,.105.013.105.064,0,.078-.117.117-.274.117-.287,0-1.692-.039-2.174-.077-.3-.026-.365-.064-.365-.13s.026-.078.091-.091.078-.235.053-.469l-.625-6.717h-.039l-3.19,6.769c-.274.573-.312.689-.429.689-.091,0-.157-.13-.4-.6-.339-.637-1.458-2.89-1.523-3.02-.118-.234-1.575-3.359-1.719-3.71h-.053l-.519,6.041c-.014.207-.014.442-.014.663a.417.417,0,0,0,.339.4,2.369,2.369,0,0,0,.494.065c.053,0,.105.026.105.064,0,.091-.078.117-.235.117-.482,0-1.106-.039-1.209-.039s-.743.039-1.095.039c-.13,0-.221-.026-.221-.117,0-.039.064-.064.13-.064a1.638,1.638,0,0,0,.391-.04c.43-.077.469-.586.522-1.08l.937-8.488c.026-.143.064-.234.143-.234s.131.053.2.2l3.983,8.188,3.827-8.175c.053-.117.105-.208.2-.208s.13.1.157.352Z" transform="translate(14.179 3.731)" fill="#a88f59"/>
      <path id="Path_25" data-name="Path 25" d="M213.1,54.976c0-2.031,0-2.4-.026-2.812-.027-.443-.13-.652-.56-.743a2.455,2.455,0,0,0-.442-.04c-.053,0-.105-.026-.105-.077,0-.078.065-.105.209-.105.586,0,1.406.041,1.471.041.091,0,2.682,0,2.98-.014a3.387,3.387,0,0,0,.561-.065c.064-.012.116-.064.181-.064.04,0,.051.053.051.117,0,.091-.064.248-.1.612-.014.131-.039.7-.065.859-.014.067-.04.144-.091.144-.078,0-.1-.065-.1-.168a1.4,1.4,0,0,0-.078-.47c-.091-.207-.221-.364-.924-.442-.221-.026-1.64-.039-1.784-.039-.053,0-.077.039-.077.13v3.593c0,.091.012.131.077.131.17,0,1.77,0,2.07-.027s.495-.052.612-.181c.091-.1.144-.171.2-.171s.064.027.064.105-.064.3-.1.729c-.026.261-.051.742-.051.833s0,.248-.091.248c-.065,0-.091-.052-.091-.117a1.337,1.337,0,0,0-.051-.429c-.053-.182-.17-.4-.677-.456-.352-.039-1.64-.065-1.862-.065a.082.082,0,0,0-.09.091v1.146c0,.442-.014,1.952,0,2.226.039.9.233,1.068,1.509,1.068a3.725,3.725,0,0,0,1.25-.144c.338-.144.495-.4.586-.937.026-.144.053-.2.117-.2s.077.1.077.2a12.611,12.611,0,0,1-.168,1.263c-.091.338-.2.338-.7.338-1.966,0-2.838-.078-3.215-.078-.065,0-.885.039-1.277.039-.142,0-.207-.026-.207-.1,0-.039.026-.079.1-.079a2.029,2.029,0,0,0,.391-.05c.26-.053.325-.339.378-.717.064-.546.064-1.575.064-2.824Z" transform="translate(15.501 3.737)" fill="#a88f59"/>
      <path id="Path_26" data-name="Path 26" d="M233.3,60.879c-.182-.091-.2-.144-.2-.495,0-.65.051-1.172.065-1.38.013-.144.039-.208.1-.208s.091.04.091.143a2.326,2.326,0,0,0,.039.483,1.772,1.772,0,0,0,1.927,1.327,1.738,1.738,0,0,0,1.861-1.732c0-.9-.378-1.42-1.5-2.343l-.585-.482c-1.381-1.133-1.693-1.94-1.693-2.826,0-1.393,1.042-2.344,2.695-2.344a5.022,5.022,0,0,1,1.21.131,2.185,2.185,0,0,0,.456.065c.105,0,.13.026.13.091s-.052.495-.052,1.379c0,.208-.026.3-.091.3s-.091-.064-.1-.168a2.274,2.274,0,0,0-.17-.65c-.078-.144-.429-.691-1.627-.691a1.48,1.48,0,0,0-1.6,1.51c0,.743.364,1.186,1.588,2.187l.365.287c1.535,1.212,1.9,2.019,1.9,3.059a2.693,2.693,0,0,1-1.106,2.16,3.414,3.414,0,0,1-1.965.547,3.961,3.961,0,0,1-1.745-.351" transform="translate(17.047 3.731)" fill="#a88f59"/>
      <path id="Path_27" data-name="Path 27" d="M246.986,57.26c0,1.249,0,2.278.065,2.824.039.378.116.664.507.717a5.749,5.749,0,0,0,.586.052c.078,0,.1.04.1.078,0,.064-.065.1-.208.1-.717,0-1.536-.04-1.6-.04s-.885.04-1.276.04c-.143,0-.208-.027-.208-.1,0-.039.027-.078.1-.078a2.031,2.031,0,0,0,.391-.052c.261-.053.325-.339.378-.717.064-.546.064-1.575.064-2.824V54.969c0-2.03,0-2.4-.026-2.812-.026-.443-.156-.664-.442-.73a1.729,1.729,0,0,0-.4-.052c-.053,0-.105-.027-.105-.078,0-.078.067-.1.209-.1.429,0,1.25.04,1.315.04s.884-.04,1.276-.04c.143,0,.208.026.208.1,0,.052-.053.078-.1.078a1.859,1.859,0,0,0-.325.04c-.351.064-.456.285-.483.742-.025.416-.025.781-.025,2.812Z" transform="translate(17.911 3.744)" fill="#a88f59"/>
      <path id="Path_28" data-name="Path 28" d="M256.462,59.277c.026,1.067.158,1.406.509,1.51a2.817,2.817,0,0,0,.65.077c.065,0,.1.027.1.079,0,.077-.077.1-.234.1-.742,0-1.263-.039-1.38-.039s-.663.039-1.249.039c-.131,0-.208-.012-.208-.1,0-.053.039-.079.1-.079a1.848,1.848,0,0,0,.534-.077c.325-.091.391-.468.391-1.654l.013-7.458c0-.509.039-.651.143-.651s.326.287.456.416c.194.221,2.134,2.317,4.139,4.465,1.289,1.38,2.709,2.968,3.124,3.4l-.142-6.614c-.014-.846-.105-1.131-.509-1.236a3.522,3.522,0,0,0-.637-.065c-.091,0-.1-.039-.1-.091,0-.077.1-.09.261-.09.586,0,1.21.04,1.353.04s.573-.04,1.106-.04c.143,0,.234.013.234.09,0,.053-.052.091-.143.091a1.1,1.1,0,0,0-.312.041c-.43.09-.482.377-.482,1.158l-.026,7.628c0,.86-.026.924-.117.924s-.261-.142-.951-.833c-.143-.13-2.017-2.043-3.4-3.527-1.51-1.628-2.982-3.268-3.4-3.737Z" transform="translate(18.623 3.731)" fill="#a88f59"/>
      <path id="Path_29" data-name="Path 29" d="M272.539,59.825a4.986,4.986,0,0,1-1.575-3.854,5.193,5.193,0,0,1,1.458-3.553,5.256,5.256,0,0,1,3.971-1.394,11.293,11.293,0,0,1,1.888.156,11.44,11.44,0,0,0,1.327.2c.144.013.17.065.17.143,0,.1-.04.261-.065.729-.026.43-.026,1.146-.04,1.341s-.039.273-.117.273-.1-.091-.1-.273a1.808,1.808,0,0,0-.546-1.329,4.341,4.341,0,0,0-2.6-.742,3.971,3.971,0,0,0-2.994.951,4.352,4.352,0,0,0-1.172,3.4,4.7,4.7,0,0,0,4.7,4.766,3,3,0,0,0,2.265-.65,2.472,2.472,0,0,0,.481-1.095c.027-.143.053-.2.131-.2s.09.091.09.2a13.509,13.509,0,0,1-.285,1.667c-.077.247-.1.274-.339.377a7.505,7.505,0,0,1-2.343.3,6.009,6.009,0,0,1-4.3-1.406" transform="translate(19.816 3.731)" fill="#a88f59"/>
      <path id="Path_30" data-name="Path 30" d="M287.037,54.976c0-2.031,0-2.4-.027-2.812-.027-.443-.131-.652-.56-.743a2.455,2.455,0,0,0-.442-.04c-.053,0-.105-.026-.105-.077,0-.078.065-.105.209-.105.587,0,1.406.041,1.471.041.091,0,2.682,0,2.98-.014a3.419,3.419,0,0,0,.562-.065c.063-.012.116-.064.18-.064.04,0,.052.053.052.117,0,.091-.064.248-.1.612-.014.131-.04.7-.066.859-.014.067-.04.144-.091.144-.078,0-.1-.065-.1-.168a1.4,1.4,0,0,0-.078-.47c-.09-.207-.221-.364-.923-.442-.222-.026-1.641-.039-1.785-.039-.052,0-.077.039-.077.13v3.593c0,.091.012.131.077.131.171,0,1.771,0,2.069-.027s.495-.052.613-.181c.091-.1.144-.171.194-.171s.065.027.065.105-.065.3-.1.729c-.026.261-.052.742-.052.833s0,.248-.09.248c-.066,0-.092-.052-.092-.117a1.336,1.336,0,0,0-.052-.429c-.053-.182-.171-.4-.677-.456-.352-.039-1.64-.065-1.862-.065a.082.082,0,0,0-.09.091v1.146c0,.442-.014,1.952,0,2.226.04.9.234,1.068,1.509,1.068a3.721,3.721,0,0,0,1.25-.144c.338-.144.495-.4.586-.937.026-.144.053-.2.117-.2s.077.1.077.2a12.615,12.615,0,0,1-.168,1.263c-.091.338-.2.338-.7.338-1.966,0-2.838-.078-3.215-.078-.027,0-.248.013-.522.013s-.559.026-.755.026c-.142,0-.207-.026-.207-.1,0-.039.026-.079.105-.079a2.029,2.029,0,0,0,.39-.05c.26-.053.325-.339.377-.717.066-.546.066-1.575.066-2.824Z" transform="translate(20.908 3.737)" fill="#a88f59"/>
      <path id="Path_31" data-name="Path 31" d="M309.6,57.09c0,1.3,0,2.421.065,2.994.05.4.1.6.521.69a7.607,7.607,0,0,0,.858.078.112.112,0,0,1,.1.1c0,.064-.064.091-.221.091-.977,0-1.809-.04-1.875-.04s-1.159.04-1.992.04c-.143,0-.208-.027-.208-.091a.112.112,0,0,1,.1-.1A8.18,8.18,0,0,0,308,60.762c.429-.078.52-.274.546-.677.04-.573.04-1.692.04-2.994V54.812c0-.7-.014-1.263-.014-1.979,0-.26-.026-.4-.234-.4a7.639,7.639,0,0,0-1.484.625.274.274,0,0,1-.156.053c-.04,0-.078-.064-.078-.117a.2.2,0,0,1,.091-.13l2.511-1.681a.6.6,0,0,1,.312-.156c.105,0,.132.143.132.274,0,.1-.065,1.392-.065,3.385Z" transform="translate(22.423 3.731)" fill="#a88f59"/>
      <path id="Path_32" data-name="Path 32" d="M323.187,54.564c0,3.658-2.917,5.911-4.5,6.7a.484.484,0,0,1-.209.053.119.119,0,0,1-.1-.13.208.208,0,0,1,.13-.182,7.106,7.106,0,0,0,3.541-6.066c0-2.278-1-3.437-2.148-3.437A1.821,1.821,0,0,0,318.11,53.5a2.313,2.313,0,0,0,1.953,2.591,1.8,1.8,0,0,0,1.041-.235.36.36,0,0,1,.17-.078c.039,0,.064.053.064.091a.133.133,0,0,1-.053.105,2.254,2.254,0,0,1-1.561.6,2.5,2.5,0,0,1-2.63-2.512,2.955,2.955,0,0,1,3.112-3.034c1.836,0,2.981,1.562,2.981,3.541" transform="translate(23.189 3.731)" fill="#a88f59"/>
      <path id="Path_33" data-name="Path 33" d="M332.674,51.023c2.526,0,3.307,2.826,3.307,4.8,0,3.1-1.289,5.4-3.514,5.4-2.488,0-3.293-2.824-3.293-4.8,0-3.1,1.25-5.4,3.5-5.4m.053,9.726c1.289,0,2.161-1.679,2.161-4.361,0-2.239-.754-4.882-2.474-4.882-1.289,0-2.148,1.692-2.148,4.387,0,2.265.717,4.856,2.461,4.856" transform="translate(24.072 3.731)" fill="#a88f59"/>
      <path id="Path_34" data-name="Path 34" d="M341.615,61.008a.186.186,0,0,1-.182-.182c0-.1.13-.221.235-.312,2.6-2.317,4.543-4.113,4.543-6.613a2.1,2.1,0,0,0-2.069-2.408,1.829,1.829,0,0,0-1.393.495,1.71,1.71,0,0,0-.456,1.262c0,.117-.053.2-.117.2s-.092-.053-.1-.17-.078-1.2-.078-1.6c0-.078.013-.118.13-.2a5.45,5.45,0,0,1,2.291-.456,2.643,2.643,0,0,1,2.943,2.63c0,2.695-2.916,5.1-4.531,6.484-.065.05-.039.091.026.091h.951c.221,0,1.758-.014,2.226-.065a1.512,1.512,0,0,0,1.523-1.25c.04-.144.078-.2.157-.2s.078.118.078.2a12.056,12.056,0,0,1-.391,1.705c-.1.352-.3.391-.846.391Z" transform="translate(24.969 3.731)" fill="#a88f59"/>
    </g>
  </g>
</svg>
