<svg xmlns="http://www.w3.org/2000/svg" xmlns:xlink="http://www.w3.org/1999/xlink" width="101" height="59" viewBox="0 0 101 59"><defs><polygon id="logo-a" points=".048 .015 14.096 .015 14.096 32.283 .048 32.283"></polygon></defs><g fill="none" fill-rule="evenodd"><path fill="#183E3F" d="M25.2255709,40.8261396 C23.8993056,40.8261396 21.8749714,43.9806464 21.3397633,44.8987342 C23.0383758,44.0276869 24.7834824,43.8629122 26.3424811,43.2508536 C26.4820949,42.2384189 26.3191027,41.3908919 25.8305202,41.037955 C25.6210338,40.8967005 25.4349259,40.8261396 25.2255709,40.8261396 Z M21.1769025,41.3908919 C26.3191027,39.5548491 29.390606,34.7995023 30.1351691,30.8443761 C30.530632,28.8199054 30.2747828,27.2190653 29.4603472,26.5129257 C29.1811196,26.3008446 28.878645,26.1832432 28.5529233,26.1832432 C26.1563732,26.1832432 24.0389194,30.6560811 23.3408505,32.4923896 C22.2239402,35.4349482 21.5492497,38.7308423 21.1769025,41.3908919 Z M20.8744278,45.3931914 L20.7813082,45.4637523 L20.7813082,45.5814865 L20.8744278,45.3931914 Z M20.5952003,45.6048739 C20.2462315,45.9109032 19.9670039,46.2876261 19.7575176,46.6878694 C19.4085488,47.4176622 19.4085488,48.3120968 19.8273901,48.8537275 C20.1066177,49.2067973 20.502212,49.3480518 20.920922,49.3480518 C21.642238,49.3480518 22.4799207,48.9242883 22.9452562,48.5947387 C24.6206216,47.394009 25.9236398,45.4872725 26.3191027,43.4391486 C24.7602354,44.0041667 22.386801,44.3337162 21.1769025,45.1812432 L20.7581925,45.9345563 C20.734814,45.9815968 20.6883199,46.0051171 20.6418257,45.9815968 C20.6418257,45.9580766 20.6184473,45.9580766 20.5952003,45.9109032 L20.5952003,45.6048739 Z M1.21305072,42.4975405 C1.21305072,42.4503671 1.25954486,42.426714 1.30603901,42.426714 C1.32928609,42.426714 1.37578023,42.4740203 1.35253316,42.5209279 C1.21305072,43.2273333 1.30603901,43.7451779 1.70163329,44.121768 C2.51593758,44.8987342 3.91207542,45.2047635 5.61068791,45.2047635 C10.4969077,45.2047635 17.8727971,42.7093559 20.8511808,41.508759 C21.1536554,38.8956171 21.7586047,35.6468964 22.9452562,32.609991 C23.6898192,30.6560811 26.0398752,26.0184685 28.5529233,26.0184685 C28.9483862,26.0184685 29.2742393,26.1362027 29.5533355,26.3950586 C30.4143966,27.1248514 30.6934928,28.7963851 30.2978986,30.8915495 C29.5302198,34.8935833 26.4122224,39.7431441 21.1536554,41.5559324 C20.9443004,43.0859459 20.8279337,44.3807568 20.7813082,45.2754572 L21.0606671,45.0633761 C21.7121105,43.933473 23.6433251,40.6847523 25.2488179,40.6847523 C25.4815514,40.6847523 25.7141534,40.7554459 25.9236398,40.9202207 C26.4354694,41.3203311 26.714697,42.1678581 26.5983303,43.2036802 C28.0642094,42.6623153 29.2043667,42.1208176 29.5533355,41.6500135 C29.5767139,41.6264932 29.6232081,41.6264932 29.6697022,41.6500135 C29.6930806,41.6734009 29.7163277,41.7207072 29.6697022,41.7676149 C29.2974863,42.2384189 28.1107035,42.8270901 26.5750832,43.368455 C26.1563732,45.5343131 25.0160845,47.5118761 23.1779896,48.7830338 C22.6195345,49.183277 21.7818518,49.5128266 21.0140416,49.5128266 C20.4788336,49.5128266 19.990251,49.3480518 19.6645293,48.9242883 C19.1991938,48.2887095 19.2921821,47.2999279 19.6179038,46.6173086 C19.8506372,46.1698919 20.1763589,45.7697815 20.5952003,45.4165788 C20.5952003,44.5221441 20.6650728,43.2036802 20.8279337,41.6734009 C17.7565618,42.8976509 10.4736606,45.3695383 5.61068791,45.3695383 C3.84220286,45.3695383 2.42294928,45.0399887 1.58526658,44.2395023 C1.16642523,43.8158716 1.05005852,43.2273333 1.21305072,42.4975405 L1.21305072,42.4975405 Z"></path><path fill="#183E3F" d="M22.4803147 57.2579054C22.5734343 58.1289527 23.0620169 58.811705 23.9926879 58.811705 24.1789272 58.811705 24.3650351 58.7646644 24.5745215 58.717491 25.970528 58.2938604 28.0181092 56.386991 29.600355 52.267223 30.6938869 49.3952252 31.2989675 46.6643491 31.8806697 44.3337162 29.6468492 46.0287703 27.3666658 48.1238018 25.7379259 50.1013649 22.5269402 54.032705 22.3873264 56.4340315 22.4803147 57.2579054zM22.3174538 57.2814257C22.1080988 55.4687703 23.2947503 52.8321081 25.5749337 50.0306712 27.2502991 47.9826802 29.6468492 45.8168221 31.9504109 44.0748604 32.1831443 43.1801599 32.5321131 42.0030833 32.8812133 40.9907815 31.9969051 42.4503671 30.7637594 43.9569932 29.9727022 43.9569932 29.8795826 43.9569932 29.7864629 43.9100856 29.6934746 43.8629122 28.7860507 43.3215473 30.0191964 41.9325225 29.5538609 41.7440946 29.5072354 41.7207072 29.5072354 41.6734009 29.5306138 41.6500135 29.5538609 41.6028401 29.600355 41.6028401 29.6468492 41.6264932 30.3449181 42.0736441 29.2513862 43.4156284 29.7632159 43.7216577 29.8330884 43.7686982 29.9028296 43.7922185 29.9959493 43.7922185 30.8102536 43.7922185 32.3227581 41.7440946 33.1836879 40.1433874 33.4396684 39.5078086 33.6490234 39.0133514 33.7886372 38.8250563 33.8118843 38.801536 33.8351313 38.801536 33.8583784 38.801536 33.9050039 38.801536 33.9050039 38.9191374 33.8816255 38.9661779 33.7886372 39.2722072 33.6257763 39.6489302 33.41629 40.0728266 33.020827 41.1555563 32.5553602 42.7563964 32.2761326 43.8629122 33.6257763 42.8506104 34.9287945 42.0972973 35.9059597 41.6264932 35.9293381 41.6264932 35.9758322 41.6264932 35.9990793 41.6734009 36.0223264 41.7207072 35.9990793 41.7676149 35.9524538 41.791268 34.9752887 42.2620721 33.6257763 43.0625586 32.2063914 44.0983806 31.554948 46.4995743 31.0662341 49.465786 29.9260767 52.455518 28.5765644 55.9866149 26.4824889 58.3172477 24.6210156 58.8588784 24.4115293 58.9294392 24.2021743 58.9529595 23.9926879 58.9529595 23.6437191 58.9529595 23.3179974 58.8588784 23.0155228 58.6705833 22.6433069 58.3880743 22.3873264 57.8936171 22.3174538 57.2814257L22.3174538 57.2814257zM52.7055826 36.0471396L53.5200182 35.7646306C61.3381274 33.0338874 68.0391951 28.5844369 63.7580559 26.348018 62.9901144 25.9477748 62.0593121 25.7594797 61.0356528 25.7594797 57.3359532 25.7594797 52.5661001 28.1608063 51.3094447 31.7390766 50.7046268 33.457518 51.3560702 34.8700631 52.7055826 36.0471396zM51.076974 31.8332905C52.2636255 27.9958986 57.1730923 25.4534505 60.9890273 25.4534505 62.0826905 25.4534505 63.0598557 25.6417455 63.8510442 26.0890293 68.341801 28.5844369 61.5473511 33.1279685 53.5898908 35.9294054L52.8684434 36.1883941C53.8691183 37.012268 55.1952523 37.6950203 56.6380156 38.2835586L56.963606 38.3305991C57.1730923 38.3777725 56.9403589 38.7308423 56.8008765 38.6836689 55.8234486 38.4719865 54.6834226 38.3541194 53.4967711 38.3541194 50.0065579 38.3541194 46.004515 39.3195135 43.654459 41.4851059 41.0017971 43.9100856 39.8151456 48.4063108 42.8400234 51.2549212 44.2826554 52.6202928 45.9578895 53.1853108 47.7263745 53.1853108 53.7061261 53.1853108 60.896039 46.6643491 65.2936762 41.6500135 65.3169233 41.6264932 65.3169233 41.6264932 65.340039 41.6264932 65.4100429 41.6264932 65.4797841 41.7207072 65.4331586 41.7676149 60.7564252 47.0645923 53.8691183 53.4913401 47.7728687 53.4913401 45.9811365 53.4913401 44.2360299 52.9263221 42.6537841 51.5844707 39.3498101 48.8065541 40.3271066 43.8158716 43.7706944 41.0614752 46.3069896 39.0133514 50.3787737 38.0245698 53.8691183 38.0245698 54.4041951 38.0245698 54.9394031 38.048223 55.428117 38.0952635 54.3112068 37.6008063 53.3106632 36.9888806 52.5427217 36.3061284 48.7035397 37.577286 44.6781183 38.4246802 41.6301248 38.4246802 39.9082653 38.4246802 38.4888804 38.1658243 37.5814564 37.5537658 36.4179207 36.7769324 36.1388244 35.4114279 36.9763758 33.3868243 36.9997542 33.3162635 37.0694954 33.269223 37.1159896 33.269223 37.1626151 33.269223 37.1858622 33.3399167 37.139368 33.4341306 35.6733576 36.8711464 37.9536723 38.1894775 41.7463602 38.1894775 44.7014967 38.1894775 48.61042 37.3656036 52.3798609 36.1413536 51.1467152 34.9877973 50.5417659 33.5515991 51.076974 31.8332905L51.076974 31.8332905z"></path><g transform="translate(64.75 26.71)"><mask id="logo-b" fill="#fff"><use xlink:href="#logo-a"></use></mask><path fill="#183E3F" d="M3.84837581,14.2578018 C5.0816528,12.8924302 6.384671,11.1503356 7.29209493,9.43189414 C9.24668791,5.75940991 10.8055553,1.35713288 9.61890377,0.391871622 C9.43279584,0.250617117 9.24668791,0.180056306 9.06044863,0.180056306 C8.85109363,0.180056306 8.61836021,0.274137387 8.36237971,0.438912162 C6.50090637,1.73372297 4.03461508,8.89026351 3.19693238,13.4574482 C3.49940702,13.5750495 3.7320091,13.8340383 3.84837581,14.2578018 Z M3.70876203,14.3990563 C3.61564239,13.9517725 3.42953446,13.6927838 3.17355397,13.5987027 C3.08056567,14.1637207 3.01082445,14.6814324 2.9643303,15.1523694 L3.70876203,14.3990563 Z M0.218548765,16.4707005 C0.241927178,16.7061689 0.358293888,16.8003829 0.544401821,16.8003829 C1.14935111,16.8003829 2.45236931,15.6231734 2.63847724,15.4583986 C2.68510273,14.846473 2.75484395,14.2107613 2.87121066,13.528009 C2.35924967,13.528009 1.77754746,13.8812117 1.40520026,14.2342815 C0.707262679,14.9405541 0.148807542,15.9293356 0.218548765,16.4707005 Z M0.521154746,16.9651577 C0.288289987,16.9651577 0.102313394,16.8239032 0.0556879064,16.4942207 C-0.014053316,15.9056824 0.381409623,14.846473 1.10285696,14.1166802 C1.59130819,13.622223 2.21976723,13.3633671 2.8943264,13.3633671 C3.7320091,8.23116441 6.26830429,1.68668243 8.26939142,0.297657658 C8.54848765,0.109495495 8.80446814,0.0152815315 9.06044863,0.0152815315 C9.29318205,0.0152815315 9.50253706,0.109495495 9.71189207,0.274137387 C10.9916632,1.28643919 9.47928999,5.64167568 7.43170871,9.50245495 C6.50090637,11.2680698 5.15139402,13.057205 3.87175423,14.4460968 C3.89486996,14.563964 3.89486996,14.7050856 3.87175423,14.846473 C3.87175423,14.8933806 3.82512874,14.9170338 3.77863459,14.9170338 C3.7320091,14.9170338 3.70876203,14.8698604 3.70876203,14.8228198 C3.7320091,14.752259 3.7320091,14.6814324 3.7320091,14.6108716 L2.94095189,15.3878378 C2.73146554,17.2006261 2.73146554,18.6365586 2.98744603,19.5076059 C3.17355397,20.1196644 3.47615995,20.4493468 3.89486996,20.4493468 C4.8256723,20.4493468 6.03557087,18.8954144 6.6406515,18.0245 C7.64106372,16.5647815 8.4090052,14.9639414 8.43212094,14.9405541 C8.45549935,14.9170338 8.47874642,14.8933806 8.5019935,14.8933806 C8.54848765,14.8933806 8.59511313,14.9405541 8.57186606,15.0112477 C8.5019935,15.1288491 7.75743043,16.7061689 6.75688687,18.1421014 C5.87271001,19.4133919 4.8256723,20.5904685 3.89486996,20.5904685 C3.28992068,20.5904685 2.94095189,20.1196644 2.77809103,19.6018198 C2.52211053,18.7306396 2.4289909,17.3889212 2.61509883,15.694 C2.3360026,15.9293356 1.17259818,16.9651577 0.521154746,16.9651577 L0.521154746,16.9651577 Z" mask="url(#logo-b)"></path><path fill="#183E3F" d="M9.99138231,17.6712973 C7.75782445,19.3662185 5.47737841,21.4615158 3.84863849,23.4390788 C0.637784135,27.3705518 0.498039012,29.7716126 0.591158648,30.5956194 C0.684278283,31.4666667 1.17286086,32.1494189 2.1036632,32.1494189 C2.28977113,32.1494189 2.47587906,32.1022455 2.68523407,32.055205 C4.08137191,31.6314414 6.12895319,29.7245721 7.71119896,25.6048041 C8.80473082,22.7326734 9.40981144,20.0019302 9.99138231,17.6712973 Z M8.03705202,25.793232 C6.68740832,29.3244617 4.5933329,31.6549617 2.73185956,32.1964595 C2.52237321,32.2670203 2.31301821,32.2905405 2.1036632,32.2905405 C1.75456307,32.2905405 1.42884135,32.1964595 1.12623537,32.0080315 C0.754019506,31.7255225 0.498039012,31.2310653 0.428297789,30.6191396 C0.218942783,28.8064842 1.40546294,26.169955 3.68577763,23.368518 C5.36114304,21.3202613 7.75782445,19.154536 10.0612549,17.4123086 C10.3404824,16.2824054 10.6429571,15.3406644 10.8989376,14.6345248 C10.1309961,15.6231734 8.94447594,16.9415045 8.24627568,16.9415045 C8.22315995,16.9415045 8.17653446,16.9179842 8.13004031,16.9179842 C7.50171261,16.7532095 7.8043186,15.6231734 8.38602081,14.9405541 C8.78161508,14.46975 9.43292718,14.093027 9.94488817,14.093027 C10.0380078,14.093027 10.1309961,14.093027 10.2008687,14.1166802 C10.4800962,14.2107613 10.5498375,14.5166577 10.4336021,14.7756464 C10.410355,14.8228198 10.3869766,14.846473 10.3404824,14.846473 C10.293857,14.846473 10.2474941,14.7756464 10.293857,14.7050856 C10.410355,14.5403108 10.410355,14.3048423 10.1543745,14.2342815 C10.107749,14.2107613 10.0612549,14.2107613 10.0146294,14.2107613 C9.01421717,14.2107613 7.40859298,16.6356081 8.22315995,16.8003829 L8.2696541,16.8003829 C8.94447594,16.8003829 10.6894512,14.8228198 11.3642731,13.6692635 C11.3875202,13.6458761 11.4107672,13.6458761 11.4340143,13.6458761 C11.5038869,13.6458761 11.5505124,13.6927838 11.5271339,13.7633446 C11.4805085,13.8575586 11.4107672,13.9517725 11.3177789,14.0695068 C11.0385514,14.6814324 10.7359454,15.8114685 10.3869766,17.2006261 C11.7366203,16.1881914 13.0163914,15.3878378 13.9935566,14.9170338 C14.0168036,14.9170338 14.0632978,14.9170338 14.0865449,14.9639414 C14.1099233,15.0112477 14.0865449,15.0581554 14.0401821,15.0818086 C13.0628856,15.5526126 11.7366203,16.4000068 10.3172354,17.4359617 C9.6656606,19.8371554 9.17707802,22.8033671 8.03705202,25.793232 L8.03705202,25.793232 Z" mask="url(#logo-b)"></path></g><path fill="#183E3F" d="M79.0698661 41.6028401C80.4891196 41.1792095 80.9545865 40.6847523 80.9080923 40.4022432 80.8847139 40.2139482 80.6519805 40.1669077 80.512498 40.1669077 80.0005371 40.1904279 79.3955878 40.8261396 79.0698661 41.6028401zM78.8837581 42.1913784C78.7906385 42.638795 78.7673914 43.3921081 79.465329 43.7451779 79.6515683 43.8393919 79.8376762 43.8629122 80.0471625 43.8629122 81.1639415 43.8629122 82.6996931 42.8034369 83.8398505 41.6500135 83.8630975 41.6264932 83.9095917 41.6264932 83.9562172 41.6500135 83.9793329 41.6734009 83.9793329 41.7440946 83.9562172 41.7676149 83.1650286 42.5682342 81.3966749 44.0512072 80.0471625 44.0512072 79.8142978 44.0512072 79.6050741 44.0041667 79.3955878 43.9100856 77.7668479 43.1094662 78.7673914 40.1433874 80.4891196 40.0021329 80.7917256 40.0021329 81.0010806 40.1433874 81.0475748 40.378723 81.0709532 40.5434977 81.0243277 41.2027297 78.9999935 41.7676149 78.9534993 41.9088694 78.9070052 42.0501239 78.8837581 42.1913784L78.8837581 42.1913784zM21.3790338 28.8226959C20.0601235 30.3846014 18.5652185 31.5673919 16.8941873 32.3709347 15.2228934 33.1743446 13.4282718 33.5764482 11.5100598 33.5764482 8.10784395 33.5764482 5.33920936 32.4812275 3.20349935 30.289723 1.06778934 28.0988829 0 25.2369842 0 21.7036284 0 19.8840631.35579844 18.1555225 1.06778934 16.517741 1.77938622 14.8802252 2.79490247 13.4699392 4.11394408 12.2872815 5.22284265 11.3016892 6.45191678 10.5511667 7.80077243 10.0355811 9.14962809 9.52012838 10.5581118 9.2622027 12.027143 9.2622027 14.5748648 9.2622027 16.6841756 9.91040541 18.3554694 11.2069437 20.0263693 12.5033491 20.8620819 14.1221284 20.8620819 16.0628829 20.8620819 17.1546486 20.5058895 18.0644977 19.7941612 18.7922973 19.0821704 19.5200968 18.1941847 19.8840631 17.1302042 19.8840631 16.1860052 19.8840631 15.3992822 19.5428198 14.7697724 18.8605991 14.1402627 18.1781126 13.8255735 17.3365653 13.8255735 16.3358243 13.8255735 14.1221284 13.6267256 12.6778243 13.2298179 12.0029122 12.8325163 11.3285315 12.1394382 10.9908761 11.1504525 10.9908761 10.0112146 10.9908761 9.14962809 11.4877252 8.56516775 12.4806261 7.98057607 13.4739257 7.6883459 14.9335113 7.6883459 16.8589842 7.6883459 20.3314797 8.56516775 23.163214 10.3185488 25.3541869 12.0720611 27.5455586 14.2977386 28.6407793 16.9953186 28.6407793 17.8495501 28.6407793 18.6325956 28.4817185 19.3445865 28.1631982 20.0561834 27.8446779 20.7345514 27.352214 21.3790338 26.6847432L21.3790338 28.8226959M36.8907425 31.8477748C38.2694122 31.8477748 39.2209662 31.1881441 39.7456671 29.8690158 40.2702367 28.5497545 40.5326528 25.7294482 40.5326528 21.407964 40.5326528 17.1170428 40.2702367 14.315473 39.7456671 13.003786 39.2209662 11.6923649 38.2694122 11.0361892 36.8907425 11.0361892 35.5267828 11.0361892 34.5865241 11.6657883 34.0694408 12.9240563 33.5523576 14.1829887 33.2937503 17.0107365 33.2937503 21.407964 33.2937503 25.8357545 33.5523576 28.6827703 34.0694408 29.9486126 34.5865241 31.2148536 35.5267828 31.8477748 36.8907425 31.8477748zM36.8907425 33.5764482C32.9488531 33.5764482 29.7829168 32.4619595 27.392671 30.232982 25.0020312 28.0040045 23.806974 25.0623761 23.806974 21.407964 23.806974 17.7687005 25.0020312 14.8424865 27.392671 12.6285248 29.7829168 10.4148288 32.9488531 9.30778153 36.8907425 9.30778153 40.832238 9.30778153 44.0057919 10.4186824 46.4112731 12.6398198 48.8167542 14.8613559 50.0194291 17.7841149 50.0194291 21.407964 50.0194291 25.0470946 48.812814 27.9851351 46.3999779 30.2215541 43.9868791 32.4583716 40.8171339 33.5764482 36.8907425 33.5764482L36.8907425 33.5764482zM64.5202185 29.8462928C65.7190845 29.8462928 66.5470481 29.3042635 67.0043719 28.2200721 67.461433 27.1360135 67.6900949 24.8047162 67.6900949 21.2260473 67.6900949 17.6020653 67.461433 15.259473 67.0043719 14.1978716 66.5470481 13.1366689 65.7190845 12.6056689 64.5202185 12.6056689 63.3210897 12.6056689 62.4970663 13.1366689 62.0473602 14.1978716 61.5977854 15.259473 61.3729324 17.6020653 61.3729324 21.2260473 61.3729324 24.7894347 61.6014629 27.1168784 62.0586554 28.2086441 62.5157165 29.3004099 63.3363251 29.8462928 64.5202185 29.8462928zM67.735013 9.39867342C67.735013 8.65585811 67.6598869 8.12499099 67.5102913 7.8066036 67.3601704 7.48808333 67.0079181 7.10152703 66.4536658 6.64653604L64.0032666 4.64492117C65.2319467 4.28108784 66.6858739 3.78849099 68.3645228 3.1665991 70.0427776 2.54497297 72.6729805 1.49878604 76.2552627.0277725225L76.2552627 27.9811486C76.2552627 29.1793536 76.4688205 30.0321959 76.8959363 30.5399414 77.323052 31.0482185 78.0311027 31.3020248 79.0203511 31.3020248L79.1552367 31.3020248 79.1552367 32.5984302 67.6001274 32.5984302 67.5102913 30.0283423C66.7307919 31.2261486 65.786593 32.1171284 64.6775631 32.70075 63.5684018 33.2843716 62.2869233 33.5764482 60.8335215 33.5764482 58.1054707 33.5764482 55.9362692 32.5681329 54.3252601 30.5513694 52.7141196 28.5348716 51.9086151 25.79775 51.9086151 22.340536 51.9086151 18.3828851 52.7889831 15.2213356 54.5501131 12.8558874 56.3109805 10.4904392 58.652762 9.30778153 61.5753264 9.30778153 62.8641599 9.30778153 64.0370208 9.55042568 65.093515 10.0355811 66.1501404 10.5210023 67.0305085 11.2260788 67.735013 12.1508108L67.735013 9.39867342 67.735013 9.39867342zM87.8111599 17.6095068L89.8793615 17.6095068C91.9174863 17.6095068 93.1688882 17.4314437 93.6336983 17.0750518 94.0979831 16.7189257 94.3305852 16.0401599 94.3305852 15.0394189 94.3305852 13.6899932 94.0907594 12.6778243 93.6111079 12.0029122 93.1313251 11.3285315 92.4046242 10.9908761 91.4306112 10.9908761 90.186433 10.9908761 89.2724421 11.5177568 88.6879818 12.5716509 88.1035215 13.6256779 87.8111599 15.3049189 87.8111599 17.6095068zM100.782502 28.8226959C99.5085098 30.3693198 98.0473589 31.5485225 96.3987867 32.3596396 94.7499519 33.1706239 92.9890845 33.5764482 91.1157906 33.5764482 89.4073277 33.5764482 87.8073511 33.2274977 86.3161235 32.5301284 84.8247646 31.8328919 83.5398713 30.8322838 82.4607867 29.5277725 81.5763472 28.4667027 80.9095371 27.2875 80.4600936 25.9909617 80.0103875 24.6945563 79.7856658 23.2956982 79.7856658 21.7946532 79.7856658 20.2480293 80.0026385 18.8075788 80.4376346 17.4731689 80.871974 16.1388919 81.5314291 14.8802252 82.4157373 13.6974347 83.3747776 12.3781734 84.66742 11.3092635 86.2937958 10.4904392 87.9196463 9.67161486 89.5720273 9.2622027 91.2506762 9.2622027 94.1732406 9.2622027 96.5072731 10.1646104 98.2534304 11.9687613 99.9991938 13.7734437 100.872469 16.1919122 100.872469 19.2244324L87.856078 19.2244324C87.9461769 21.9236824 88.8151183 24.1679414 90.4638218 25.9569437 92.1122627 27.7462117 94.0979831 28.6407793 96.4212458 28.6407793 97.3054226 28.6407793 98.107381 28.4779977 98.8265956 28.1517703 99.5460728 27.8259414 100.198042 27.3369324 100.782502 26.6847432L100.782502 28.8226959 100.782502 28.8226959z"></path></g></svg>