<?xml version="1.0" encoding="UTF-8"?>
<svg width="17px" height="19px" viewBox="0 0 17 19" version="1.1" xmlns="http://www.w3.org/2000/svg" xmlns:xlink="http://www.w3.org/1999/xlink">
    <!-- Generator: Sketch 56.3 (81716) - https://sketch.com -->
    <title>Shape</title>
    <desc>Created with Sketch.</desc>
    <g id="Personaliser---Necklaces" stroke="none" stroke-width="1" fill="none" fill-rule="evenodd">
        <g id="Necklaces---Customiser---main-screen---mais-opções---topo---lightbox" transform="translate(-227.000000, -247.000000)" fill="#37584F" fill-rule="nonzero" stroke="#37584F" stroke-width="0.503999966">
            <g id="Group-4" transform="translate(-37.000000, 0.000000)">
                <g id="Group-3" transform="translate(0.000000, 93.000000)">
                    <g id="Group-6" transform="translate(117.000000, 93.000000)">
                        <path d="M160.272727,62 C158.771889,62 157.545455,63.2070578 157.545455,64.6842098 C157.545455,65.0351703 157.611527,65.3759083 157.737216,65.6838096 L152.552557,68.5148009 C152.068116,68.0828445 151.428989,67.8157879 150.727273,67.8157879 C149.226434,67.8157879 148,69.0228547 148,70.5 C148,71.9771453 149.226434,73.1842121 150.727273,73.1842121 C151.431761,73.1842121 152.074555,72.9201977 152.559659,72.4851991 L157.744318,75.3161904 C157.616523,75.6263062 157.545455,75.9617429 157.545455,76.3157902 C157.545455,77.7929332 158.771889,79 160.272727,79 C161.773566,79 163,77.7929332 163,76.3157902 C163,74.8386248 161.773566,73.6315804 160.272727,73.6315804 C159.455593,73.6315804 158.720973,73.9898776 158.22017,74.5542775 L153.127841,71.7722058 C153.336407,71.3932625 153.454545,70.9593376 153.454545,70.5 C153.454545,70.0383853 153.338325,69.6080572 153.127841,69.2277942 L158.22017,66.4457225 C158.720993,67.0107487 159.455068,67.3684196 160.272727,67.3684196 C161.773566,67.3684196 163,66.1613529 163,64.6842098 C163,63.2070578 161.773566,62 160.272727,62 L160.272727,62 Z M160.1875,62.9444444 C161.228573,62.9444444 162.0625,63.7845372 162.0625,64.8333333 C162.0625,65.8821389 161.228573,66.7222222 160.1875,66.7222222 C159.146427,66.7222222 158.3125,65.8821389 158.3125,64.8333333 C158.3125,63.7845372 159.146427,62.9444444 160.1875,62.9444444 Z M150.8125,68.6111111 C151.853573,68.6111111 152.6875,69.4511934 152.6875,70.5000024 C152.6875,71.5488066 151.853573,72.3888889 150.8125,72.3888889 C149.771427,72.3888889 148.9375,71.5488066 148.9375,70.5000024 C148.9375,69.4511934 149.771427,68.6111111 150.8125,68.6111111 Z M160.1875,74.2777778 C161.228573,74.2777778 162.0625,75.1178611 162.0625,76.1666667 C162.0625,77.2154486 161.228573,78.0555556 160.1875,78.0555556 C159.146427,78.0555556 158.3125,77.2154486 158.3125,76.1666667 C158.3125,75.1178611 159.146427,74.2777778 160.1875,74.2777778 L160.1875,74.2777778 Z" id="Shape"></path>
                    </g>
                </g>
            </g>
        </g>
    </g>
</svg>